<svg width="1204" height="287" xmlns="http://www.w3.org/2000/svg"><g fill="#FFF" fill-rule="evenodd"><path d="M248.22 44.06l1.51 9.13a171.47 171.47 0 011.65 25.64 236.66 236.66 0 01-6.81 56.24 210.82 210.82 0 01-31.37 69.86c-16.91 24.32-41.36 48.24-77 67.46l-4.36 2.35-4.36-2.35c-35.64-19.22-60.08-43.14-77-67.46a210.84 210.84 0 01-31.37-69.86 236.67 236.67 0 01-6.81-56.23 171.43 171.43 0 011.65-25.64l1.51-9.13a5.727 5.727 0 10-11.3-1.87l-1.51 9.13A181.79 181.79 0 00.84 78.84a248.08 248.08 0 007.14 59 222.28 222.28 0 0033.11 73.66c17.85 25.69 43.74 50.95 81 71l7.08 3.81a5.71 5.71 0 005.43 0l7.07-3.81c37.22-20.06 63.12-45.31 81-71a222.27 222.27 0 0033.09-73.65 248.07 248.07 0 007.14-59 181.87 181.87 0 00-1.81-27.51l-1.51-9.13a5.727 5.727 0 10-11.3 1.87l-.06-.02z"/><path d="M46.75 37.84l85.1-26 87 26.56a5.748 5.748 0 003.34-11L133.52.33a5.7 5.7 0 00-3.34 0L43.4 26.82a5.748 5.748 0 103.34 11l.01.02z"/><path d="M4.73 45.74l122 238.12a5.72 5.72 0 0010.14.09l74.4-139.15.11-.22 47.62-99a5.734 5.734 0 00-10.32-5l-47.54 98.92L132 268.9 14.92 40.5a5.725 5.725 0 10-10.19 5.22v.02z"/><path d="M63.13 151.79H198.8a5.725 5.725 0 000-11.45H63.13a5.725 5.725 0 000 11.45m378.42-49.4h-88.26a5.79 5.79 0 00-5.76 5.76v70.84a5.8 5.8 0 005.76 5.76h88.26v12h-88.26a17.63 17.63 0 01-17.71-17.71V108.2a17.63 17.63 0 0117.71-17.71h88.26v11.9zm165.73-11.96v12h-85v35.07h68.32v12.1h-68.33v35.13h85v12h-97V90.43z"/><path d="M782.31 108.29v31.14a17.64 17.64 0 01-17.71 17.71h-16.23l33.35 39.55h-15.79l-33.21-39.55h-39a56.58 56.58 0 01-5.76-.59v40.14h-12V90.58h88.55a17.64 17.64 0 0117.71 17.71h.09zm-88.55 36.75h70.84a5.54 5.54 0 005.61-5.61v-31.14a5.68 5.68 0 00-1.62-4.06 5.32 5.32 0 00-4-1.7h-70.84a5.79 5.79 0 00-5.76 5.76v31.14a5.3 5.3 0 001.7 4 5.65 5.65 0 004.07 1.61z" fill-rule="nonzero"/><path d="M845.78 90.43H952v12h-47v94.31h-12v-94.31h-47.22zm170.6 106.26V90.43h12v106.26zm171.49-106.26h15.35l-44.42 53.13 44.57 53.13h-15.5l-39.55-47.08h-34.24v47.08H1102V90.43h12.1v47.07h34.24z"/></g></svg>