<?xml version="1.0" encoding="utf-8"?>
<!-- Generator: Adobe Adobe Illustrator 24.2.0, SVG Export Plug-In . SVG Version: 6.00 Build 0)  -->
<svg version="1.1" id="Layer_1" xmlns="http://www.w3.org/2000/svg" xmlns:xlink="http://www.w3.org/1999/xlink" x="0px" y="0px"
	 viewBox="0 0 168.29 273.59" style="enable-background:new 0 0 168.29 273.59;" xml:space="preserve">
<style type="text/css">
	.st0{fill:url(#SVGID_1_);}
	.st1{clip-path:url(#SVGID_3_);}
	.st2{clip-path:url(#SVGID_7_);}
	.st3{fill:url(#SVGID_8_);}
	.st4{fill:url(#SVGID_9_);}
	.st5{fill:#FFFFFF;}
	.st6{clip-path:url(#SVGID_11_);}
	.st7{fill:url(#SVGID_12_);}
	.st8{fill:url(#SVGID_13_);}
	.st9{fill:url(#SVGID_14_);}
	.st10{fill:url(#SVGID_15_);}
	.st11{fill:url(#SVGID_16_);}
	.st12{fill:url(#SVGID_17_);}
	.st13{fill:url(#SVGID_18_);}
	.st14{fill:none;stroke:#E61B73;stroke-width:0.25;stroke-miterlimit:10;}
	.st15{opacity:0.1;fill:#2EB3A9;}
	.st16{opacity:0.5;fill:#2EB3A9;}
	.st17{opacity:0.89;}
	.st18{fill:#30B4AC;}
	.st19{opacity:0.4;fill:#FFFFFF;}
	.st20{opacity:0.6;fill:#FFFFFF;}
	.st21{fill:#E74A1D;}
	.st22{fill:none;stroke:#FFFFFF;stroke-width:0.5;stroke-miterlimit:10;}
	.st23{clip-path:url(#SVGID_26_);}
	.st24{fill:url(#SVGID_27_);}
	.st25{fill:url(#SVGID_28_);}
	.st26{opacity:0.9;}
	.st27{clip-path:url(#SVGID_30_);}
	.st28{clip-path:url(#SVGID_32_);}
	.st29{clip-path:url(#SVGID_36_);}
	.st30{clip-path:url(#SVGID_38_);}
	.st31{opacity:0.05;}
	.st32{opacity:0.03;}
</style>
<g>
	<polyline class="st18" points="97.07,141.77 97.06,161.94 97.06,164.64 97.07,164.64 97.07,141.77 	"/>
	<path class="st18" d="M168.29,76.2H48.2C17,76.2,0,94.93,0,120.1c0,25.83,18.29,44.54,47.78,44.54H62v-23.02H47.99
		c-12.05,0-19.58-7.1-19.58-18.94c0-11.83,7.32-19.15,19.8-19.15h120.09V76.2"/>
	<path class="st18" d="M119.66,141.62h-13.37v23.02h13.37c14.63,0,22.81,6.89,22.81,20.23c0,12.27-8.18,20.44-22.81,20.44H0v27.34
		h119.66c32.7,0,48.64-19.59,48.64-45.84C168.29,156.47,151.28,141.62,119.66,141.62"/>
	<polyline class="st18" points="97.06,242.79 71.23,242.79 71.23,273.59 97.06,273.59 97.06,242.79 	"/>
	<polyline class="st18" points="97.07,113.03 71.23,113.03 71.23,195.82 97.06,195.82 97.06,164.62 97.06,161.94 97.07,141.77 
		97.07,113.03 	"/>
	<polyline class="st18" points="84.15,0 47.4,46.13 71.23,46.13 71.23,66.7 97.07,66.7 97.07,46.13 120.89,46.13 84.15,0 	"/>
</g>
</svg>